<svg width="83" height="19" viewBox="0 0 83 19" xmlns="http://www.w3.org/2000/svg"><title>Logo</title><path d="M9.624 18.911L0 .203h2.544C4.182 3.49 6.342 7.802 7.887 10.805c1.088 2.116 1.843 3.779 1.843 3.779s.774-1.704 1.887-3.867A1066.2 1066.2 0 0 0 16.916.203h2.542L9.832 18.916l-.208-.005zM29.288 1.974c-3.976 0-7.2 3.352-7.2 7.487 0 4.136 3.224 7.487 7.2 7.487 3.977 0 7.2-3.351 7.2-7.487 0-4.135-3.223-7.487-7.2-7.487zm0 16.945c-5.158 0-9.34-4.234-9.34-9.458 0-5.223 4.182-9.458 9.34-9.458 5.16 0 9.341 4.235 9.341 9.458 0 5.224-4.182 9.458-9.34 9.458zm21.833-.196h-9.135V.2h2.138v16.353h6.997v2.169zm6.997-16.355h-6.997V.2h9.136v18.522h-2.139V2.368zm7.484 0c-.59 0-1.069-.486-1.069-1.084 0-.599.478-1.083 1.069-1.083.59 0 1.069.484 1.069 1.083 0 .598-.478 1.084-1.07 1.084zm14.853 16.35a1037.201 1037.201 0 0 0-5.342-10.605 93.468 93.468 0 0 1-1.843-3.779s-.774 1.704-1.887 3.867c-1.543 3-3.677 7.262-5.299 10.518h-2.543L73.168 0l.208.005L83 18.719h-2.545z" fill="#898989" fill-rule="evenodd"/></svg>