<?xml version="1.0" encoding="UTF-8"?>
<svg width="83px" height="19px" viewBox="0 0 83 19" version="1.1" xmlns="http://www.w3.org/2000/svg" xmlns:xlink="http://www.w3.org/1999/xlink">
    <!-- Generator: Sketch 44.1 (41455) - http://www.bohemiancoding.com/sketch -->
    <title>Logo</title>
    <desc>Created with Sketch.</desc>
    <defs></defs>
    <g id="Page-1" stroke="none" stroke-width="1" fill="none" fill-rule="evenodd">
        <g id="Desktop-HD-Copy-11" transform="translate(-149.000000, -37.000000)" fill="#898989">
            <g id="Header" transform="translate(149.000000, 37.000000)">
                <g id="Logo">
                    <g id="Fill-1">
                        <path d="M9.62426922,18.9110537 L0,0.202607632 L2.54353556,0.202607632 C4.18221679,3.48968966 6.34193502,7.80190583 7.88714779,10.8047324 C8.97496166,12.9205205 9.72966983,14.5837175 9.72966983,14.5837175 C9.72966983,14.5837175 10.5042649,12.8802006 11.6169374,10.7170365 C13.1591671,7.71824199 15.2940267,3.45743372 16.9158041,0.202607632 L19.4583453,0.202607632 L9.83208741,18.9160937 L9.62426922,18.9110537 Z M29.288444,1.97366042 C25.3120567,1.97366042 22.0883889,5.32626233 22.0883889,9.46107082 C22.0883889,13.5968873 25.3120567,16.9484812 29.288444,16.9484812 C33.2648313,16.9484812 36.4884991,13.5968873 36.4884991,9.46107082 C36.4884991,5.32626233 33.2648313,1.97366042 29.288444,1.97366042 L29.288444,1.97366042 Z M29.288444,18.9191176 C24.12978,18.9191176 19.9475633,14.6845173 19.9475633,9.46107082 C19.9475633,4.23762431 24.12978,0.00302399451 29.288444,0.00302399451 C34.447108,0.00302399451 38.6293248,4.23762431 38.6293248,9.46107082 C38.6293248,14.6845173 34.447108,18.9191176 29.288444,18.9191176 L29.288444,18.9191176 Z M51.1212862,18.722558 L41.9862349,18.722558 L41.9862349,0.200591636 L44.1240775,0.200591636 L44.1240775,16.5543539 L51.1212862,16.5543539 L51.1212862,18.722558 Z M58.1184948,2.3677877 L51.1212862,2.3677877 L51.1212862,0.200591636 L60.2573318,0.200591636 L60.2573318,18.722558 L58.1184948,18.722558 L58.1184948,2.3677877 Z M65.6019384,2.3677877 C65.0112972,2.3677877 64.5330171,1.88193258 64.5330171,1.28418967 C64.5330171,0.685438755 65.0112972,0.200591636 65.6019384,0.200591636 C66.1925795,0.200591636 66.6708597,0.685438755 66.6708597,1.28418967 C66.6708597,1.88193258 66.1925795,2.3677877 65.6019384,2.3677877 L65.6019384,2.3677877 Z M80.4554701,18.718526 C78.8177832,15.430436 76.658065,11.1172118 75.1128522,8.11337727 C74.024044,5.99758911 73.2703302,4.33439213 73.2703302,4.33439213 C73.2703302,4.33439213 72.4957351,6.03790904 71.3830626,8.20107311 C69.8398385,11.2008757 67.7059733,15.4626919 66.0841959,18.718526 L63.5406603,18.718526 L73.1679126,0 L73.3757308,0.00503999085 L83,18.718526 L80.4554701,18.718526 Z"></path>
                    </g>
                </g>
            </g>
        </g>
    </g>
</svg>