<?xml version="1.0" encoding="UTF-8"?>
<svg width="34px" height="29px" viewBox="0 0 34 29" version="1.1" xmlns="http://www.w3.org/2000/svg" xmlns:xlink="http://www.w3.org/1999/xlink">
    <!-- Generator: Sketch 44.1 (41455) - http://www.bohemiancoding.com/sketch -->
    <title>Shape</title>
    <desc>Created with Sketch.</desc>
    <defs></defs>
    <g id="Page-1" stroke="none" stroke-width="1" fill="none" fill-rule="evenodd">
        <g id="Desktop-HD-Copy-18" transform="translate(-734.000000, -4273.000000)" stroke="#FFFFFF" stroke-width="0.7" fill="#000000" fill-rule="nonzero">
            <g id="Group-7" transform="translate(345.000000, 4239.000000)">
                <path d="M406.888889,35.2802542 C404.043956,35.2802542 401.635689,37.2073306 400.902756,39.7977732 C399.994311,38.1602267 398.232133,37.03783 396.222222,37.03783 C393.292533,37.03783 390.888889,39.414112 390.888889,42.3105441 C390.888889,44.1319198 391.843733,45.7560517 393.277778,46.7044835 L391.333333,46.7044835 C390.6352,46.7045714 390.000089,47.3325092 390,48.0226829 L390,61.2045011 C390.000089,61.8946571 390.6352,62.522595 391.333333,62.5226829 L412.666667,62.5226829 C413.3648,62.522595 413.999911,61.8946571 414,61.2045011 L414,59.4194632 L420.305556,61.1495768 C421.093111,61.3685268 421.9964,60.6951117 422,59.8863192 L422,49.3408647 C422.005778,48.5921814 421.251378,47.9291798 420.5,48.0226829 C418.345911,48.5832177 416.160756,49.2011374 414,49.7940117 L414,48.0226829 C413.999911,47.3325136 413.3648,46.7045714 412.666667,46.7044835 L410.083333,46.7044835 C411.891467,45.6248926 413.111111,43.6599273 413.111111,41.4317562 C413.111111,38.0499783 410.309511,35.2802586 406.888889,35.2802586 L406.888889,35.2802542 Z M406.888889,37.9166179 C408.868267,37.9166179 410.444444,39.4748098 410.444444,41.4317562 C410.444444,43.3887289 408.868267,44.9469077 406.888889,44.9469077 C404.909422,44.9469077 403.333333,43.3887289 403.333333,41.4317562 C403.333333,39.4747967 404.909422,37.9166179 406.888889,37.9166179 Z M396.222222,39.6741936 C397.710756,39.6741936 398.888889,40.8389347 398.888889,42.3105441 C398.888889,43.7822062 397.710756,44.9469077 396.222222,44.9469077 C394.733689,44.9469077 393.555556,43.7822062 393.555556,42.3105441 C393.555556,40.8389347 394.733689,39.6741936 396.222222,39.6741936 Z M401.263911,44.0406577 C401.792267,45.1440198 402.643111,46.0767653 403.694444,46.7044835 L399.166667,46.7044835 C400.124844,46.0707456 400.876756,45.1325077 401.263911,44.0406577 Z M392.666667,49.3408647 L411.333333,49.3408647 L411.333333,59.8863192 L392.666667,59.8863192 L392.666667,49.3408647 Z M419.333333,51.0709783 L419.333333,58.1424526 L414,56.6732511 L414,52.5402238 L419.333333,51.0709783 Z" id="Shape"></path>
            </g>
        </g>
    </g>
</svg>