<?xml version="1.0" encoding="UTF-8"?>
<svg width="30px" height="24px" viewBox="0 0 30 24" version="1.1" xmlns="http://www.w3.org/2000/svg" xmlns:xlink="http://www.w3.org/1999/xlink">
    <!-- Generator: Sketch 44.1 (41455) - http://www.bohemiancoding.com/sketch -->
    <title>noun_862299_cc</title>
    <desc>Created with Sketch.</desc>
    <defs></defs>
    <g id="Page-1" stroke="none" stroke-width="1" fill="none" fill-rule="evenodd">
        <g id="Desktop-HD-Copy-18" transform="translate(-391.000000, -3849.000000)" stroke="#000000" stroke-width="0.2" fill="#000000" fill-rule="nonzero">
            <g id="noun_862299_cc" transform="translate(392.000000, 3849.000000)">
                <g id="Group" transform="translate(0.000000, 0.200590)">
                    <path d="M10.3330115,0.113893908 C9.96064739,0.121976397 9.62930218,0.368096052 9.49149739,0.634774163 L8.18030093,3.2588313 L3.13121605,3.2588313 C1.41277356,3.2588313 4.69436827e-07,4.67779246 4.69436827e-07,6.40376869 L4.69436827e-07,20.2415089 C4.69436827e-07,21.967482 1.41277356,23.3864463 3.13121605,23.3864463 L25.0497231,23.3864463 C26.7681654,23.3864463 28.1809385,21.967482 28.1809385,20.2415089 L28.1809385,6.40376869 C28.1809385,4.67779246 26.7681654,3.2588313 25.0497231,3.2588313 L20.0006388,3.2588313 L18.6894424,0.634774163 C18.5340092,0.323205216 18.1948982,0.113302659 17.8479282,0.113893908 L10.3330115,0.113893908 Z M10.9201144,2.00085634 L17.2608257,2.00085634 L18.5720218,4.62491348 C18.7274553,4.93648243 19.0665663,5.14638498 19.413536,5.14579373 L25.0497231,5.14579373 C25.7598511,5.14579373 26.3022093,5.69052519 26.3022093,6.40376869 L26.3022093,20.2415089 C26.3022093,20.9547493 25.7598511,21.4994839 25.0497231,21.4994839 L3.13121605,21.4994839 C2.42108771,21.4994839 1.87872988,20.9547493 1.87872988,20.2415089 L1.87872988,6.40376869 C1.87872988,5.69052519 2.42108771,5.14579373 3.13121605,5.14579373 L8.76740382,5.14579373 C9.11437349,5.14642272 9.45348443,4.93648243 9.60891796,4.62491348 L10.9201144,2.00085634 Z M14.09047,6.71826243 C10.4700645,6.71826243 7.51491765,9.68631596 7.51491765,13.3226152 C7.51491765,16.9589491 10.4700335,19.9270152 14.09047,19.9270152 C17.7109379,19.9270152 20.6660215,16.9589491 20.6660215,13.3226152 C20.6660215,9.68632854 17.7109376,6.71826243 14.0904697,6.71826243 L14.09047,6.71826243 Z M14.09047,8.60522486 C16.69561,8.60522486 18.7872929,10.7061122 18.7872929,13.3226152 C18.7872929,15.9391717 16.69561,18.0400528 14.09047,18.0400528 C11.4854241,18.0400528 9.3936469,15.9391402 9.3936469,13.3226152 C9.3936469,10.7061248 11.4853927,8.60522486 14.09047,8.60522486 L14.09047,8.60522486 Z" id="Shape"></path>
                </g>
            </g>
        </g>
    </g>
</svg>