<?xml version="1.0" encoding="UTF-8"?>
<svg width="22px" height="28px" viewBox="0 0 22 28" version="1.1" xmlns="http://www.w3.org/2000/svg" xmlns:xlink="http://www.w3.org/1999/xlink">
    <!-- Generator: Sketch 44.1 (41455) - http://www.bohemiancoding.com/sketch -->
    <title>Shape</title>
    <desc>Created with Sketch.</desc>
    <defs></defs>
    <g id="Page-1" stroke="none" stroke-width="1" fill="none" fill-rule="evenodd">
        <g id="Desktop-HD-Copy-18" transform="translate(-445.000000, -4370.000000)" fill-rule="nonzero" fill="#000000">
            <g id="Group-7" transform="translate(345.000000, 4239.000000)">
                <path d="M121.592967,135.267459 L121.592967,158.520898 L100.423392,158.520898 L100.423392,131 L117.39123,131 L121.592967,135.267459 Z M119.899401,142.96041 L119.899401,140.892043 L114.131115,146.750554 L116.167628,146.750554 L119.899401,142.96041 Z M119.899401,145.39257 L118.562331,146.750554 L119.899401,146.750554 L119.899401,145.39257 Z M102.116958,136.448278 L102.116958,138.516645 L107.824275,132.720056 L105.786915,132.720056 L102.116958,136.448278 Z M102.116958,140.948805 L102.116958,143.017172 L112.255491,132.720056 L110.218977,132.720056 L102.116958,140.948805 Z M102.116958,145.449331 L102.116958,146.750554 L102.873135,146.750554 L116.686706,132.720056 L114.650193,132.720056 L102.116958,145.449331 Z M117.885751,133.934416 L105.267837,146.750554 L107.30435,146.750554 L118.904431,134.969029 L117.885751,133.934416 Z M119.899401,136.390656 L109.699053,146.750554 L111.735566,146.750554 L119.899401,138.459023 L119.899401,136.390656 Z M103.392213,132.720056 L102.116958,132.720056 L102.116958,134.015258 L103.392213,132.720056 Z M102.116958,156.800842 L119.899401,156.800842 L119.899401,148.47061 L102.116958,148.47061 L102.116958,156.800842 Z" id="Shape"></path>
            </g>
        </g>
    </g>
</svg>