<?xml version="1.0" encoding="UTF-8"?>
<svg width="33px" height="23px" viewBox="0 0 33 23" version="1.1" xmlns="http://www.w3.org/2000/svg" xmlns:xlink="http://www.w3.org/1999/xlink">
    <!-- Generator: Sketch 44.1 (41455) - http://www.bohemiancoding.com/sketch -->
    <title>Shape</title>
    <desc>Created with Sketch.</desc>
    <defs></defs>
    <g id="Page-1" stroke="none" stroke-width="1" fill="none" fill-rule="evenodd">
        <g id="Desktop-HD-Copy-18" transform="translate(-735.000000, -4329.000000)" fill="#000000">
            <g id="Group-7" transform="translate(345.000000, 4239.000000)">
                <g id="Shape" transform="translate(390.000000, 90.000000)">
                    <path d="M14.2208872,21.2908856 C12.8166319,21.2908856 11.4123765,21.1649597 10.1038659,20.9760708 L11.3804617,20.2834782 L9.52939782,19.8427375 C8.79535527,19.6538486 8.06131272,19.4964412 7.35918506,19.3075523 C5.69961059,18.8668116 4.1357808,18.3945894 2.6357808,17.8908856 L0.369823355,17.0723671 L1.86982336,18.9927375 C2.06131272,19.2445894 2.25280208,19.4649597 2.41237655,19.6853301 C3.30599357,20.7557005 4.29535527,21.7631079 5.41237655,22.7390338 L5.76344038,23.0223671 L6.17833399,22.8649597 C6.81663187,22.6131079 7.45492974,22.3297745 8.06131272,22.0464412 C9.97620633,22.5186634 12.0825893,22.7705153 14.2528021,22.7705153 C22.3591851,22.7705153 28.7421638,19.4334782 28.7421638,15.1834782 C28.7421638,14.774219 28.4230148,14.4594042 28.0081212,14.4594042 C27.5932276,14.4594042 27.2740787,14.774219 27.2740787,15.1834782 C27.2421638,18.4575523 21.2740787,21.2908856 14.2208872,21.2908856 Z" fill-rule="nonzero" transform="translate(14.555994, 18.740886) rotate(6.000000) translate(-14.555994, -18.740886) "></path>
                    <path d="M0,11.502 C1.116,12.636 2.718,13.212 4.23,13.212 C7.092,13.212 8.73,11.196 8.73,9.018 C8.73,6.804 7.02,5.544 5.256,5.292 L8.37,1.674 L8.37,0.216 L0.576,0.216 L0.576,2.214 L4.392,2.214 C5.13,2.214 5.526,2.16 5.526,2.16 L5.526,2.196 C5.526,2.196 5.094,2.574 4.608,3.168 L2.268,5.94 L2.772,7.128 L3.654,7.128 C5.166,7.128 6.39,7.758 6.39,9.108 C6.39,10.206 5.418,11.016 4.104,11.016 C2.97,11.016 1.872,10.422 1.188,9.72 L0,11.502 Z M11.566,7.164 C11.566,3.798 13.492,0 17.452,0 C18.316,0 19.288,0.162 20.08,0.54 L19.396,2.538 C19.036,2.34 18.19,2.142 17.578,2.142 C15.58,2.142 14.5,3.816 14.194,5.562 L14.23,5.562 C14.662,5.04 15.706,4.662 16.624,4.662 C19.144,4.662 20.71,6.624 20.71,8.946 C20.71,11.286 19.036,13.212 16.516,13.212 C13.852,13.212 11.566,10.998 11.566,7.164 Z M16.534,11.088 C17.686,11.088 18.424,10.134 18.424,8.946 C18.424,7.632 17.614,6.57 16.084,6.57 C14.986,6.57 13.978,7.074 13.978,8.01 C13.978,9.432 15.076,11.088 16.534,11.088 Z M28.154,13.212 C24.662,13.212 23.51,10.26 23.51,6.588 C23.51,2.916 24.662,0 28.154,0 C31.646,0 32.78,2.916 32.78,6.588 C32.78,10.26 31.646,13.212 28.154,13.212 Z M28.154,11.088 C29.9,11.088 30.404,9.108 30.404,6.588 C30.404,4.104 29.9,2.142 28.154,2.142 C26.408,2.142 25.904,4.104 25.904,6.588 C25.904,9.108 26.408,11.088 28.154,11.088 Z" id="360" fill-rule="evenodd"></path>
                </g>
            </g>
        </g>
    </g>
</svg>