<?xml version="1.0" encoding="UTF-8"?>
<svg width="25px" height="28px" viewBox="0 0 25 28" version="1.1" xmlns="http://www.w3.org/2000/svg" xmlns:xlink="http://www.w3.org/1999/xlink">
    <!-- Generator: Sketch 44.1 (41455) - http://www.bohemiancoding.com/sketch -->
    <title>Shape</title>
    <desc>Created with Sketch.</desc>
    <defs></defs>
    <g id="Page-1" stroke="none" stroke-width="1" fill="none" fill-rule="evenodd">
        <g id="Desktop-HD-Copy-18" transform="translate(-444.000000, -4324.000000)" fill-rule="nonzero" fill="#000000">
            <g id="Group-7" transform="translate(345.000000, 4239.000000)">
                <path d="M108.068999,85.4313813 C108.033794,85.6400338 107.991227,85.8686934 107.941299,86.1173603 C107.567464,88.0097306 106.51845,89.0909172 104.872294,90.3408555 C104.763221,90.423569 104.546337,90.5571492 104.221642,90.7415964 C104.430485,91.101004 104.576512,91.3485246 104.659722,91.4841581 L110.611731,100.953383 C110.715792,101.11894 110.954936,101.474663 111.329161,102.020552 C111.703386,101.474663 111.942529,101.11894 112.04659,100.953383 L117.998599,91.4841581 C118.079491,91.3523048 118.216049,91.1303824 118.408274,90.8183909 C118.106034,90.5854152 117.898619,90.4262368 117.786027,90.3408555 C116.139872,89.0909172 115.090857,88.0097306 114.717023,86.1173603 C114.662202,85.8499171 114.662202,85.6212575 114.717023,85.4313813 L108.068999,85.4313813 Z M109.389444,87.1530586 L113.268878,87.1530586 C113.796255,88.8821479 114.862708,90.1411684 116.165168,91.2151452 L112.179448,97.5503817 L112.179448,93.3672396 C112.68698,93.0693532 113.029735,92.5243544 113.029735,91.8876731 C113.029735,90.9368178 112.268362,90.1659959 111.329161,90.1659959 C110.38996,90.1659959 109.628587,90.9368178 109.628587,91.8876731 C109.628587,92.5243544 109.971341,93.0693532 110.478874,93.3672396 L110.478874,97.5503817 L106.493154,91.2151452 C107.795613,90.1411684 108.862067,88.8821479 109.389444,87.1530586 Z M108.7783,102.648175 L108.7783,104.719555 L103.025577,107.813216 L99,107.813216 C99.0000362,108.070164 99.0000362,108.357106 99,108.674041 L99,112.117387 C99.0000205,112.434334 99.0000205,112.72129 99,112.978256 L104.101722,112.978256 C104.101701,112.72129 104.101701,112.434334 104.101722,112.117387 L104.101722,109.185182 L108.7783,106.656466 L108.7783,107.813216 L113.880022,107.813216 C113.880001,107.55625 113.880001,107.269294 113.880022,106.952347 L113.880022,106.656466 L118.5566,109.185182 L118.5566,112.978256 C118.810396,112.978224 119.093825,112.978224 119.406887,112.978256 L123.658321,112.978256 C123.658301,112.72129 123.658301,112.434334 123.658321,112.117387 L123.658321,108.674041 C123.658285,108.357106 123.658285,108.070164 123.658321,107.813216 L119.632744,107.813216 L113.880022,104.719555 L113.880022,103.509001 L113.880022,102.648175 L108.7783,102.648175 Z M110.478874,104.369827 L112.179448,104.369827 L112.179448,106.091521 L110.478874,106.091521 L110.478874,104.369827 Z M100.700574,109.534867 L102.401148,109.534867 L102.401148,111.256561 L100.700574,111.256561 L100.700574,109.534867 Z M120.257174,109.534867 L121.957748,109.534867 L121.957748,111.256561 L120.257174,111.256561 L120.257174,109.534867 Z" id="Shape"></path>
            </g>
        </g>
    </g>
</svg>