<svg width="22" height="28" viewBox="0 0 22 28" xmlns="http://www.w3.org/2000/svg"><title>Shape</title><path d="M21.593 4.267v23.254H.423V0h16.968l4.202 4.267zm-1.694 7.693V9.892l-5.768 5.859h2.037l3.731-3.79zm0 2.433l-1.337 1.358H19.9v-1.358zM2.117 5.448v2.069L7.824 1.72H5.787l-3.67 3.728zm0 4.5v2.07L12.255 1.72H10.22L2.117 9.95zm0 4.501v1.302h.756L16.687 1.72H14.65L2.117 14.448zM17.886 2.934L5.268 15.751h2.036l11.6-11.782-1.018-1.035zm2.013 2.457L9.7 15.75h2.037L19.9 7.458V5.391zM3.392 1.72H2.117v1.294L3.392 1.72zM2.117 25.8h17.782v-8.33H2.117v8.33z"/></svg>