<svg width="34" height="29" viewBox="0 0 34 29" xmlns="http://www.w3.org/2000/svg"><title>Shape</title><path d="M17.889 1.28a6.239 6.239 0 0 0-5.986 4.518 5.364 5.364 0 0 0-4.68-2.76c-2.93 0-5.334 2.376-5.334 5.273 0 1.82.955 3.445 2.389 4.393H2.333c-.698 0-1.333.629-1.333 1.319v13.182c0 .69.635 1.318 1.333 1.318h21.334c.698 0 1.333-.628 1.333-1.318v-1.786l6.306 1.73c.787.22 1.69-.454 1.694-1.263V15.341c.006-.749-.749-1.412-1.5-1.318-2.154.56-4.34 1.178-6.5 1.771v-1.771c0-.69-.635-1.318-1.333-1.319h-2.584c1.808-1.08 3.028-3.044 3.028-5.272 0-3.382-2.801-6.152-6.222-6.152zm0 2.637c1.98 0 3.555 1.558 3.555 3.515s-1.576 3.515-3.555 3.515c-1.98 0-3.556-1.558-3.556-3.515s1.576-3.515 3.556-3.515zM7.222 5.674c1.489 0 2.667 1.165 2.667 2.637 0 1.471-1.178 2.636-2.667 2.636-1.488 0-2.666-1.165-2.666-2.636 0-1.472 1.178-2.637 2.666-2.637zm5.042 4.367a6.264 6.264 0 0 0 2.43 2.663h-4.527a5.371 5.371 0 0 0 2.097-2.663zm-8.597 5.3h18.666v10.545H3.667V15.341zm26.666 1.73v7.071L25 22.673V18.54l5.333-1.469z" stroke="#FFF" stroke-width=".7"/></svg>