<svg width="30" height="24" viewBox="0 0 30 24" xmlns="http://www.w3.org/2000/svg"><title>noun_862299_cc</title><path d="M11.333.314a1.013 1.013 0 0 0-.842.521L9.181 3.46H4.13C2.413 3.46 1 4.88 1 6.604v13.838c0 1.726 1.413 3.145 3.131 3.145H26.05c1.718 0 3.13-1.419 3.13-3.145V6.604c0-1.726-1.412-3.145-3.13-3.145H21L19.69.835a.96.96 0 0 0-.842-.52h-7.515zm.587 1.887h6.34l1.312 2.625a.96.96 0 0 0 .842.52h5.636c.71 0 1.252.545 1.252 1.258v13.838c0 .713-.542 1.258-1.252 1.258H4.13c-.71 0-1.252-.545-1.252-1.258V6.604c0-.713.542-1.258 1.252-1.258h5.636a.96.96 0 0 0 .842-.52L11.92 2.2zm3.17 4.718c-3.62 0-6.575 2.968-6.575 6.604 0 3.637 2.955 6.605 6.575 6.605s6.576-2.968 6.576-6.605c0-3.636-2.955-6.604-6.576-6.604zm0 1.887c2.606 0 4.697 2.1 4.697 4.717a4.693 4.693 0 0 1-4.697 4.718 4.693 4.693 0 0 1-4.696-4.718 4.693 4.693 0 0 1 4.696-4.717z" stroke="#000" stroke-width=".2"/></svg>