<svg width="25" height="28" viewBox="0 0 25 28" xmlns="http://www.w3.org/2000/svg"><title>Shape</title><path d="M9.069.431a22.65 22.65 0 0 1-.128.686C8.567 3.01 7.518 4.091 5.872 5.341a6.896 6.896 0 0 1-.65.4c.208.36.355.608.438.743l5.952 9.47c.104.165.343.52.717 1.067.374-.546.614-.902.718-1.068l5.952-9.469c.08-.132.217-.354.41-.666-.303-.233-.51-.392-.623-.477-1.646-1.25-2.695-2.331-3.069-4.224-.055-.267-.055-.496 0-.686H9.069zm1.32 1.722h3.88c.527 1.73 1.594 2.988 2.896 4.062L13.18 12.55V8.367c.508-.298.85-.843.85-1.48 0-.95-.76-1.721-1.7-1.721-.939 0-1.7.77-1.7 1.722 0 .636.342 1.181.85 1.48v4.182L7.493 6.215c1.303-1.074 2.37-2.333 2.896-4.062zm-.61 15.495v2.072l-5.753 3.093H0v5.165h5.102v-3.793l4.676-2.529v1.157h5.102v-1.157l4.677 2.53v3.792h5.101v-5.164h-4.025L14.88 19.72v-2.071H9.778zm1.7 1.722h1.7v1.722h-1.7V19.37zM1.7 24.535h1.7v1.722H1.7v-1.722zm19.556 0h1.7v1.722h-1.7v-1.722z"/></svg>