<svg width="456" height="64" viewBox="0 0 456 64" xmlns="http://www.w3.org/2000/svg"><title>Group 5</title><g fill="none" fill-rule="evenodd"><path d="M9.43 64V46.14C4.295 44.907 0 39.87 0 34.64V15.784C0 9.728 5.733 4 11.796 4h37.698C55.557 4 61.29 9.728 61.29 15.785v18.854c0 6.06-5.733 11.787-11.795 11.787H26.87L9.43 64zm2.366-55.265c-3.367 0-7.062 3.69-7.062 7.05V34.64c0 3.494 3.565 7.053 7.062 7.053h2.367V52.51l10.735-10.818h24.596c3.499 0 7.061-3.559 7.061-7.053V15.785c0-3.36-3.696-7.051-7.06-7.051h-37.7z" fill="#000" fill-rule="nonzero"/><path d="M282.9 55V41.903c-3.756-.905-6.9-4.598-6.9-8.434V19.642c0-4.441 4.195-8.642 8.632-8.642h27.583c4.437 0 8.63 4.2 8.63 8.642v13.827c0 4.444-4.194 8.643-8.63 8.643h-16.554L282.9 55zm1.732-40.528c-2.464 0-5.168 2.707-5.168 5.17V33.47c0 2.562 2.608 5.172 5.168 5.172h1.732v7.933l7.854-7.933h17.997c2.56 0 5.167-2.61 5.167-5.172V19.642c0-2.464-2.704-5.17-5.167-5.17h-27.583zM349.9 55V41.903c-3.756-.905-6.9-4.598-6.9-8.434V19.642c0-4.441 4.195-8.642 8.632-8.642h27.583c4.437 0 8.63 4.2 8.63 8.642v13.827c0 4.444-4.194 8.643-8.63 8.643h-16.554L349.9 55zm1.732-40.528c-2.464 0-5.168 2.707-5.168 5.17V33.47c0 2.562 2.608 5.172 5.168 5.172h1.732v7.933l7.854-7.933h17.997c2.56 0 5.167-2.61 5.167-5.172V19.642c0-2.464-2.704-5.17-5.167-5.17h-27.583zM417.9 55V41.903c-3.756-.905-6.9-4.598-6.9-8.434V19.642c0-4.441 4.195-8.642 8.632-8.642h27.583c4.437 0 8.63 4.2 8.63 8.642v13.827c0 4.444-4.194 8.643-8.63 8.643h-16.554L417.9 55zm1.732-40.528c-2.464 0-5.168 2.707-5.168 5.17V33.47c0 2.562 2.608 5.172 5.168 5.172h1.732v7.933l7.854-7.933h17.997c2.56 0 5.167-2.61 5.167-5.172V19.642c0-2.464-2.704-5.17-5.167-5.17h-27.583z" fill="#33D4F0" fill-rule="nonzero"/><path d="M104 24v-8h-4v8h-8v4h8v8h4v-8h8v-4h-8zm142-4v4h-20v-4h20zm0 8v4h-20v-4h20z" fill="#000"/><path d="M169 0c-14.888 0-27 12.112-27 27s12.112 27 27 27 27-12.112 27-27-12.112-27-27-27zm0 4c12.726 0 23 10.274 23 23s-10.274 23-23 23-23-10.274-23-23 10.274-23 23-23zm-2 8.702v2.486c-1.319.256-2.525.78-3.531 1.593A6.747 6.747 0 0 0 161 22c0 2.277 1.348 4.09 2.844 5 1.063.647 2.126 1.044 3.156 1.406v6.157c-1.064-.471-1.864-1.243-2.281-1.938a2.004 2.004 0 0 0-3.438 2.063c1.087 1.81 3.098 3.47 5.719 4.062v2.75h4v-2.687c1.32-.266 2.525-.812 3.531-1.625A6.683 6.683 0 0 0 177 32c0-2.277-1.348-4.122-2.844-5.031-1.063-.647-2.126-1.044-3.156-1.406v-6.125c1.064.46 1.864 1.21 2.281 1.906a2.004 2.004 0 1 0 3.438-2.063c-1.087-1.81-3.098-3.448-5.719-4.031v-2.548h-4zm0 6.642v4.75a7.51 7.51 0 0 1-1.063-.5c-.77-.468-.937-.543-.937-1.594 0-.938.342-1.561 1-2.094.27-.218.61-.412 1-.562zm4 10.531c.418.167.79.335 1.063.5.77.468.937.574.937 1.625 0 .938-.342 1.53-1 2.063a3.9 3.9 0 0 1-1 .562v-4.75z" fill="#000" fill-rule="nonzero"/></g></svg>